<svg xmlns="http://www.w3.org/2000/svg" viewBox="0 0 64 64" id="cat"><path fill="#363636" d="M30.446,22.105a1,1,0,0,0-1.047.1l-4.846,3.646a12.18,12.18,0,0,0-9.1,0L10.6,22.2A1,1,0,0,0,9,23v9c0,5.514,4.935,10,11,10s11-4.486,11-10V23A1,1,0,0,0,30.446,22.105Z"></path><path fill="#e7514d" d="M23 35a1 1 0 0 1-.556-1.832l3-2a1 1 0 1 1 1.11 1.664l-3 2A1 1 0 0 1 23 35zM17 35a1 1 0 0 1-.554-.168l-3-2a1 1 0 0 1 1.11-1.664l3 2A1 1 0 0 1 17 35z"></path><path fill="#363636" d="M55,9a3,3,0,0,0-6,0V21.03c-.091-.091-.17-.19-.262-.28a20.349,20.349,0,0,0-14.983-5.74,20.124,20.124,0,0,0-15.794,8.6,13.684,13.684,0,0,1,6.347.54L28.5,21a2.5,2.5,0,0,1,4,2v7.408A5.253,5.253,0,0,1,34.33,30,5.5,5.5,0,0,1,40,35.5V52.171A3,3,0,0,0,38.043,55.5,3.083,3.083,0,0,0,41.11,58H43a3,3,0,0,0,3-3V45.5A1.5,1.5,0,0,1,47.5,44a1.487,1.487,0,0,1,1.062.437A1.514,1.514,0,0,1,49,45.5v6.671A3,3,0,0,0,47.043,55.5,3.083,3.083,0,0,0,50.11,58H52a3,3,0,0,0,3-3Z"></path><path fill="#363636" d="M20,43.5a13.28,13.28,0,0,1-6-1.416V52.171A3,3,0,0,0,12.043,55.5,3.083,3.083,0,0,0,15.11,58H17a3,3,0,0,0,3-3V46.5A1.5,1.5,0,0,1,21.5,45a1.487,1.487,0,0,1,1.062.437A1.514,1.514,0,0,1,23,46.5v5.671A3,3,0,0,0,21.043,55.5,3.083,3.083,0,0,0,24.11,58H26a3,3,0,0,0,3-3V39.961A13,13,0,0,1,20,43.5Z"></path></svg>