<svg xmlns="http://www.w3.org/2000/svg" data-name="Layer 1" viewBox="0 0 512 512" id="dracula"><path fill="#4a4f60" d="M144.591 331.317H367.41A98.591 98.591 0 0 1 466 429.908v75.409H46v-75.409a98.591 98.591 0 0 1 98.591-98.591Z"></path><path fill="#3b3f4d" d="M367.409 331.317h-30A98.591 98.591 0 0 1 436 429.908v75.409h30v-75.409a98.591 98.591 0 0 0-98.591-98.591Z"></path><path fill="#f66" d="M157.598 505.317c2.199-13.114 13.235-86.675-36.309-151.463C86.732 308.663 41.476 292.293 24 286.97a543.264 543.264 0 0 1 464 0c-17.48 5.324-62.73 21.697-97.29 66.883-49.547 64.784-38.528 138.34-36.33 151.463H309.5c-17.023 0-34.047-15-51.07-15-18.643 0-37.287 15-55.93 15Z"></path><path fill="#ff4e4e" d="M256.694 234.942q-7.962-.01-15.727.208a543.285 543.285 0 0 1 176.377 34.517c14.737 5.55 16.26 25.867 2.48 33.487a189.534 189.534 0 0 0-59.113 50.7c-49.548 64.784-38.529 138.34-36.331 151.463h30c-2.198-13.123-13.217-86.68 36.33-151.463 34.56-45.186 79.81-61.559 97.29-66.883a540.511 540.511 0 0 0-231.306-52.029Z"></path><path fill="#fbfbfb" d="M202.5 505.317v-211h107v211"></path><path fill="#4a4f60" d="M376 184.511H136l11.424-115.758a53.568 53.568 0 0 1 38.593-46.247L216.14 13.9a145.09 145.09 0 0 1 79.718 0l30.124 8.607a53.568 53.568 0 0 1 38.593 46.247Z"></path><path fill="#3b3f4d" d="M364.576 68.753a53.568 53.568 0 0 0-38.593-46.247L295.86 13.9A145.084 145.084 0 0 0 241 9.096a145.042 145.042 0 0 1 24.86 4.804l30.123 8.606a53.568 53.568 0 0 1 38.593 46.247L346 184.51h30Z"></path><path fill="#ffc570" d="M326.14 196.327a121.728 121.728 0 0 1 42.353-29.972 119.431 119.431 0 0 1 27.367-7.82 138.964 138.964 0 0 1-66.462 102.95l-3.258-65.158zm-140.28 0a121.728 121.728 0 0 0-42.353-29.972 119.431 119.431 0 0 0-27.367-7.82 138.964 138.964 0 0 0 66.462 102.95l3.258-65.158z"></path><path fill="#ffcd85" d="m330.286 287.367-61.573 30.787a28.427 28.427 0 0 1-25.426 0l-61.573-30.787A28.427 28.427 0 0 1 166 261.942v-124.99a28.427 28.427 0 0 1 37.416-26.969l43.595 14.532a28.427 28.427 0 0 0 17.978 0l43.595-14.532A28.427 28.427 0 0 1 346 136.951v124.99a28.427 28.427 0 0 1-15.714 25.426Z"></path><path fill="#ffc166" d="m308.584 109.983-6.896 2.299A28.299 28.299 0 0 1 316 136.952v124.99a28.427 28.427 0 0 1-15.714 25.425L241 317.01l2.287 1.144a28.427 28.427 0 0 0 25.426 0l61.573-30.787A28.427 28.427 0 0 0 346 261.942v-124.99a28.427 28.427 0 0 0-37.416-26.969zm-91.573 14.532a28.43 28.43 0 0 0 17.978 0L241 122.51l-37.584-12.528a28.187 28.187 0 0 0-23.104 2.299z"></path><path fill="#272a33" d="M491.228 279.385a540.124 540.124 0 0 0-123.288-41.302 145.684 145.684 0 0 0 15.452-21.117 147.923 147.923 0 0 0 19.916-58.365 7.5 7.5 0 0 0-8.638-8.288 127.783 127.783 0 0 0-14.121 3.108l-8.508-86.222a60.742 60.742 0 0 0-43.997-52.72L297.92 5.87a152.463 152.463 0 0 0-83.84.001l-30.124 8.607a60.74 60.74 0 0 0-43.996 52.721l-8.509 86.222a127.789 127.789 0 0 0-14.12-3.107 7.502 7.502 0 0 0-8.639 8.287 147.887 147.887 0 0 0 19.916 58.366 145.652 145.652 0 0 0 15.461 21.116 540.09 540.09 0 0 0-123.298 41.302 7.5 7.5 0 0 0 .822 13.873c20.62 6.986 48.018 19.683 72.983 42.262A105.907 105.907 0 0 0 38.5 429.092V504.5A7.5 7.5 0 0 0 46 512h420a7.5 7.5 0 0 0 7.5-7.5v-75.408a105.618 105.618 0 0 0-56.064-93.582c24.962-22.572 52.354-35.267 72.97-42.252a7.5 7.5 0 0 0 .822-13.873ZM386.744 167.278a132.703 132.703 0 0 1-16.21 41.962 130.712 130.712 0 0 1-17.034 22.45v-49.695a110.915 110.915 0 0 1 33.244-14.717ZM154.887 68.672a45.82 45.82 0 0 1 33.19-39.772l30.124-8.606a137.48 137.48 0 0 1 75.597-.001l30.124 8.608a45.82 45.82 0 0 1 33.19 39.77l8.862 89.797c-.13.054-.26.103-.39.157a126.06 126.06 0 0 0-12.084 5.864v-28.355a35.926 35.926 0 0 0-47.289-34.083l-43.594 14.531a21.036 21.036 0 0 1-13.235 0l-43.594-14.531a35.926 35.926 0 0 0-47.288 34.083v28.361a125.99 125.99 0 0 0-12.085-5.87c-.13-.054-.26-.103-.389-.157ZM338.5 136.134v124.991a20.814 20.814 0 0 1-11.569 18.718l-61.573 30.786a21.028 21.028 0 0 1-18.717 0l-61.573-30.786a20.814 20.814 0 0 1-11.568-18.718V136.134a20.973 20.973 0 0 1 20.86-20.95 21.111 21.111 0 0 1 6.684 1.097l43.594 14.531a36.15 36.15 0 0 0 22.723 0l43.595-14.53a20.926 20.926 0 0 1 27.544 19.852ZM141.465 209.24a132.637 132.637 0 0 1-16.209-41.962 110.863 110.863 0 0 1 33.244 14.719v49.672a130.705 130.705 0 0 1-17.035-22.429ZM151.246 497H53.5v-67.908a90.957 90.957 0 0 1 52.353-82.468 184.474 184.474 0 0 1 9.567 11.08c43.6 54.836 39.883 114.603 35.826 139.296ZM195 497h-28.57c4.205-28.12 6.65-90.879-39.27-148.632-25.769-32.407-57.48-51.597-83.755-62.818a528.106 528.106 0 0 1 113.367-34.682c.57.507 1.149 1.007 1.728 1.507v8.75a35.731 35.731 0 0 0 19.859 32.134l16.64 8.32Zm107 0h-92V309.079l29.932 14.966a36.094 36.094 0 0 0 32.135 0L302 309.079Zm156.5-67.908V497h-97.746c-4.057-24.693-7.774-84.46 35.827-139.296a184.537 184.537 0 0 1 9.56-11.072 90.703 90.703 0 0 1 52.359 82.46Zm-73.66-80.724C338.92 406.121 341.365 468.88 345.57 497H317V301.58l16.64-8.321a35.73 35.73 0 0 0 19.86-32.134v-8.752c.582-.503 1.177-.992 1.751-1.503a528.106 528.106 0 0 1 113.343 34.68c-26.274 11.221-57.984 30.41-83.754 62.818Zm-92.186-108.383a96.286 96.286 0 0 1-33.188 7.18 97.515 97.515 0 0 1-40.128-7.183 7.5 7.5 0 0 0-5.677 13.885c2.086.853 4.203 1.635 6.34 2.36l-3.746 10.163a7.5 7.5 0 1 0 14.074 5.19l4.228-11.468a112.18 112.18 0 0 0 21.569 2.112q1.94 0 3.878-.07a111.195 111.195 0 0 0 16.555-1.865l2.602 11.397a7.5 7.5 0 0 0 14.623-3.338l-2.698-11.821c2.44-.81 4.865-1.681 7.26-2.663a7.5 7.5 0 0 0-5.692-13.879Zm19.965-95.624-28.593 10.927a7.5 7.5 0 1 0 5.355 14.012l4.378-1.673a7.497 7.497 0 1 0 11.358-4.34l12.857-4.914a7.5 7.5 0 1 0-5.355-14.012ZM218.5 169.552a7.473 7.473 0 0 0-.259-1.925l4.378 1.673a7.5 7.5 0 1 0 5.355-14.012l-28.593-10.927a7.5 7.5 0 1 0-5.355 14.012l12.857 4.913a7.499 7.499 0 1 0 11.617 6.266ZM256 347a7.5 7.5 0 1 0 7.5 7.5 7.5 7.5 0 0 0-7.5-7.5Zm0 60a7.5 7.5 0 1 0 7.5 7.5 7.5 7.5 0 0 0-7.5-7.5Zm0 60a7.5 7.5 0 1 0 7.5 7.5 7.5 7.5 0 0 0-7.5-7.5Z"></path></svg>