<svg xmlns="http://www.w3.org/2000/svg" xmlns:xlink="http://www.w3.org/1999/xlink" width="64" height="64" id="ghost-evil-halloween-spirit-fear"><defs><path id="a" d="M0 63.632h53.361V.564H0z"></path></defs><g fill="none" fill-rule="evenodd"><path fill="#FEFEFE" d="M52.298 29.103c.071-.828.11-1.666.11-2.516 0-13.496-9.287-24.437-20.74-24.437-11.455 0-20.741 10.941-20.741 24.437 0 .86-.091 1.679-.018 2.516 0 0-5.23 14.972-4.651 28.746 0 0 6.69-2.134 7.499-4.929 0 0 1.39 5.926 4.482 8.522 0 0 4.914-3.532 5.161-6.127 0 0 4.37 5.728 8.203 7.324 3.833-1.596 8.204-7.324 8.204-7.324.248 2.595 5.162 6.127 5.162 6.127 3.091-2.596 4.481-8.522 4.481-8.522.81 2.795 7.5 4.929 7.5 4.929.58-13.774-4.652-28.746-4.652-28.746"></path><g transform="translate(4.923 .296)"><mask id="b" fill="#fff"><use xlink:href="#a"></use></mask><path fill="#2E2E30" d="M18.478 53.73c.396 0 .776.182 1.025.507.04.051 3.823 4.97 7.176 6.684 2.79-1.436 6.087-5.253 7.18-6.684a1.291 1.291 0 0 1 2.308.66c.111 1.166 2.086 3.177 3.775 4.545 2.231-2.545 3.319-7.064 3.33-7.114.135-.57.638-.98 1.223-.993a1.303 1.303 0 0 1 1.27.93c.336 1.156 2.797 2.544 5.015 3.457.082-12.868-4.573-26.348-4.622-26.49a1.279 1.279 0 0 1-.067-.536c.068-.803.104-1.611.104-2.404 0-12.765-8.725-23.149-19.451-23.149-10.725 0-19.45 10.384-19.45 23.149 0 .326-.012.645-.025.963-.02.505-.039.983.002 1.438.015.183-.007.367-.067.54-.05.14-4.703 13.632-4.623 26.487 2.219-.913 4.68-2.304 5.015-3.455a1.289 1.289 0 0 1 2.493.063c.012.05 1.1 4.57 3.331 7.114 1.714-1.382 3.661-3.366 3.775-4.546a1.288 1.288 0 0 1 1.283-1.167m8.202 9.904c-.168 0-.338-.033-.495-.1-2.762-1.15-5.676-4.141-7.343-6.05-1.44 2.235-4.105 4.229-4.774 4.71a1.292 1.292 0 0 1-1.581-.06c-2.048-1.719-3.393-4.64-4.15-6.735-2.21 1.899-5.717 3.099-6.61 3.383a1.288 1.288 0 0 1-1.68-1.174c-.55-13.042 3.924-26.866 4.635-28.971a15.681 15.681 0 0 1 .01-1.482c.011-.284.022-.57.022-.862 0-14.187 9.883-25.728 22.03-25.728 12.147 0 22.03 11.541 22.03 25.728 0 .775-.032 1.566-.092 2.352.72 2.13 5.181 15.936 4.633 28.963a1.29 1.29 0 0 1-1.68 1.174c-.893-.284-4.4-1.484-6.611-3.383-.757 2.096-2.102 5.016-4.15 6.735a1.29 1.29 0 0 1-1.58.06c-.67-.481-3.334-2.475-4.774-4.71-1.668 1.909-4.583 4.9-7.345 6.05-.158.067-.326.1-.495.1" mask="url(#b)"></path></g><path fill="#010202" d="M52.298 29.103c.071-.828.11-1.666.11-2.516 0-13.496-9.287-24.437-20.74-24.437-1.023 0-2.027.091-3.01.259C38.687 4.127 46.39 14.295 46.39 26.587c0 .85-.038 1.688-.11 2.516 0 0 4.506 12.902 4.688 25.77 2.224 1.776 5.981 2.976 5.981 2.976.58-13.774-4.651-28.746-4.651-28.746" opacity=".3"></path><path fill="#4C4C4C" d="M31.57 39.856a3.871 3.871 0 0 1-3.87-3.871V29.93a3.871 3.871 0 1 1 7.74 0v6.054a3.871 3.871 0 0 1-3.87 3.871"></path><path fill="#2E2E30" d="M31.57 27.35a2.584 2.584 0 0 0-2.58 2.581v6.054a2.584 2.584 0 0 0 2.58 2.581 2.584 2.584 0 0 0 2.581-2.581V29.93a2.584 2.584 0 0 0-2.58-2.581m0 13.796a5.165 5.165 0 0 1-5.16-5.161V29.93a5.165 5.165 0 0 1 5.16-5.161 5.165 5.165 0 0 1 5.159 5.161v6.054a5.165 5.165 0 0 1-5.16 5.16"></path><path fill="#4C4C4C" d="m18.275 21.57 9.707-7.237s-2.214 15.98-9.707 7.238"></path><path fill="#2E2E30" d="M20.213 21.735c.829.764 1.764 1.34 2.572 1.106 1.359-.4 2.506-2.869 3.23-5.433l-5.802 4.327Zm2.182 3.743c-1.64 0-3.35-1.027-5.099-3.068a1.29 1.29 0 0 1 .21-1.875l9.706-7.237a1.29 1.29 0 0 1 2.046 1.212c-.134.973-1.44 9.54-5.747 10.806-.368.108-.74.162-1.116.162Z"></path><path fill="#4C4C4C" d="m45.06 21.57-9.708-7.237s2.214 15.98 9.707 7.238"></path><path fill="#2E2E30" d="M37.322 17.41c.726 2.565 1.873 5.034 3.228 5.43.806.238 1.743-.343 2.572-1.105l-5.8-4.325Zm3.618 8.068c-.376 0-.748-.054-1.117-.163-4.307-1.264-5.613-9.833-5.747-10.805a1.29 1.29 0 0 1 2.046-1.212l9.708 7.238a1.293 1.293 0 0 1 .209 1.874c-1.75 2.041-3.46 3.068-5.1 3.068Z"></path></g></svg>