<svg xmlns="http://www.w3.org/2000/svg" enable-background="new 0 0 64 64" viewBox="0 0 64 64" id="halloween"><path fill="#2a2f64" d="M32,0C18.45,0,7.42,13.63,7.42,30.39c0,1.16,0.06,2.32,0.16,3.45v0.1c0.01,0,0.01,0.01,0.01,0.02
		c0.33,3.53,2.49,6.72,5.63,8.31c3.86,1.95,6.47,4.4,7.52,10.57c0.35,2.08,0.96,3.91,1.8,5.43C25.5,63.59,30.43,64,31.89,64
		c1.42,0,6.27-0.4,9.22-5.56c0.89-1.56,1.53-3.45,1.9-5.6c1.07-6.23,3.74-8.7,7.71-10.67c1.38-0.69,2.55-1.68,3.48-2.86
		c0.05-0.06,0.11-0.12,0.15-0.18c1.15-1.53,1.9-3.36,2.08-5.32c0.11-1.12,0.16-2.28,0.16-3.42C56.58,13.63,45.55,0,32,0z
		 M54.49,33.64c-0.11,1.19-0.48,2.34-1.06,3.36l-2.37-3.14c-0.16-0.21-0.41-0.36-0.68-0.39c-0.26-0.03-0.53,0.06-0.74,0.23
		l-2.55,2.2l-3.16-2.98c-0.39-0.37-1-0.36-1.37,0.04c-0.37,0.39-0.35,1,0.04,1.37l3.8,3.58c0.36,0.34,0.92,0.36,1.3,0.03l2.42-2.09
		l2.1,2.8c-0.68,0.73-1.47,1.35-2.39,1.8c-4.39,2.17-7.55,5.06-8.76,12.07c-0.33,1.92-0.89,3.6-1.68,4.96
		c-2.42,4.25-6.38,4.58-7.53,4.58c-1.18,0-5.21-0.34-7.63-4.73c-0.74-1.34-1.27-2.95-1.59-4.81c-1.18-6.95-4.28-9.81-8.56-11.99
		c-2.13-1.08-3.69-3.06-4.32-5.37l3.4,0.99c0.1,0.03,0.18,0.04,0.27,0.04c0.34,0,0.66-0.16,0.83-0.47l1.16-1.95l2.06,0.6
		c0.51,0.15,1.05-0.15,1.2-0.66c0.15-0.51-0.15-1.06-0.66-1.2L15.3,31.7c-0.43-0.13-0.88,0.06-1.11,0.44l-1.17,1.95l-3.55-1.04
		c-0.06-0.87-0.11-1.76-0.11-2.66C9.36,14.7,19.52,1.94,32,1.94c2.8,0,5.5,0.65,7.98,1.83L36.63,5.3c-0.47,0.21-0.69,0.75-0.5,1.22
		l1.22,3.28l-3.21,1.71c-0.47,0.25-0.65,0.83-0.4,1.31c0.17,0.33,0.51,0.51,0.85,0.51c0.16,0,0.31-0.04,0.46-0.12l3.96-2.09
		c0.43-0.23,0.62-0.75,0.46-1.2l-1.2-3.23l3.84-1.76c7.43,4.67,12.54,14.32,12.54,25.45C54.64,31.48,54.59,32.57,54.49,33.64z"></path><path fill="#edeced" d="M42.1,4.94l-3.84,1.76l1.2,3.23c0.16,0.46-0.03,0.97-0.46,1.2l-3.96,2.09c-0.15,0.08-0.3,0.12-0.46,0.12
		c-0.34,0-0.68-0.18-0.85-0.51c-0.25-0.48-0.07-1.06,0.4-1.31l3.21-1.71l-1.22-3.28c-0.18-0.48,0.04-1.01,0.5-1.22l3.36-1.53
		C37.5,2.59,34.81,1.94,32,1.94C19.52,1.94,9.36,14.7,9.36,30.39c0,0.89,0.05,1.78,0.11,2.66l3.55,1.04l1.17-1.95
		c0.22-0.38,0.68-0.56,1.11-0.44l2.76,0.81c0.51,0.15,0.8,0.69,0.66,1.2c-0.16,0.51-0.69,0.8-1.2,0.66l-2.06-0.6l-1.16,1.95
		c-0.17,0.3-0.49,0.47-0.83,0.47c-0.09,0-0.17-0.01-0.27-0.04l-3.4-0.99c0.62,2.31,2.18,4.3,4.32,5.37
		c4.29,2.17,7.38,5.03,8.56,11.99c0.32,1.86,0.85,3.47,1.59,4.81c2.42,4.39,6.45,4.73,7.63,4.73c1.15,0,5.11-0.33,7.53-4.58
		c0.79-1.37,1.35-3.04,1.68-4.96c1.2-7.01,4.36-9.9,8.76-12.07c0.91-0.46,1.71-1.08,2.39-1.8l-2.1-2.8l-2.42,2.09
		c-0.38,0.33-0.94,0.31-1.3-0.03l-3.8-3.58c-0.39-0.37-0.41-0.98-0.04-1.37c0.37-0.4,0.98-0.41,1.37-0.04l3.16,2.98l2.55-2.2
		c0.2-0.17,0.48-0.26,0.74-0.23c0.27,0.03,0.51,0.17,0.68,0.39l2.37,3.14c0.57-1.02,0.95-2.16,1.06-3.36
		c0.1-1.07,0.15-2.16,0.15-3.25C54.64,19.26,49.53,9.61,42.1,4.94z M22.52,28.14c-0.13,0-0.25,0-0.38-0.01
		c-4.38-0.41-5.39-4.24-5.32-6.25c-0.01-0.39,0.01-2.44,1.55-3.66c1.19-0.95,2.91-1.1,5.1-0.44c2.37,0.71,3.92,1.83,4.63,3.34
		c0.78,1.67,0.19,3.13,0.13,3.29C27.24,26.73,24.58,28.14,22.52,28.14z M37.02,43.33c-0.5,0.83-1.38,1.32-2.35,1.32h-5.33
		c-0.97,0-1.85-0.48-2.36-1.32c-0.49-0.82-0.53-1.83-0.09-2.7l2.67-5.12c0.48-0.91,1.42-1.47,2.44-1.47c1.03,0,1.96,0.56,2.43,1.47
		l2.67,5.12C37.55,41.49,37.52,42.5,37.02,43.33z M41.87,28.13c-0.13,0.01-0.25,0.01-0.39,0.01c-1.03,0-2.21-0.35-3.25-0.99
		c-1.05-0.64-1.96-1.57-2.45-2.73c-0.07-0.16-0.65-1.62,0.14-3.29c0.71-1.5,2.26-2.63,4.62-3.34c2.19-0.66,3.91-0.51,5.11,0.44
		c1.53,1.21,1.55,3.27,1.54,3.66C47.26,23.89,46.25,27.72,41.87,28.13z"></path><path fill="#d5d6d5" d="M39.99 3.77L36.63 5.3c-.07.03-.13.07-.17.11C35.03 4.97 33.54 4.75 32 4.75c-10.94 0-19.83 11.5-19.83 25.64 0 1.04.05 2.09.15 3.12.01.13.03.26.05.39l-2.9-.85c-.06-.87-.11-1.76-.11-2.66C9.36 14.7 19.52 1.94 32 1.94 34.81 1.94 37.5 2.59 39.99 3.77zM52.24 38.64c-.68.73-1.47 1.35-2.39 1.8-4.39 2.17-7.55 5.06-8.76 12.07-.33 1.92-.89 3.6-1.68 4.96-2.42 4.25-6.38 4.58-7.53 4.58-1.18 0-5.21-.34-7.63-4.73-.74-1.34-1.27-2.95-1.59-4.81-1.18-6.95-4.28-9.81-8.56-11.99-2.13-1.08-3.69-3.06-4.32-5.37l3.4.99c.03.01.06.02.09.02.52.78 1.24 1.43 2.09 1.85 4.15 2.1 8.59 5.41 10.07 14.03.26 1.53.69 2.85 1.28 3.92 1.68 3.04 4.37 3.28 5.16 3.28.78 0 3.42-.23 5.1-3.17.62-1.08 1.08-2.43 1.35-4.03 1.48-8.69 6.03-12.01 10.28-14.12.76-.39 1.41-.92 1.91-1.58L52.24 38.64zM54.64 30.39c0 1.09-.05 2.18-.15 3.25-.11 1.19-.48 2.34-1.06 3.36l-1.94-2.58c.1-.33.16-.68.19-1.03.09-.99.14-2 .14-3 0-10.99-5.36-20.37-12.89-24.01l3.16-1.44C49.53 9.61 54.64 19.26 54.64 30.39z"></path><path fill="#2a2f64" d="M47.18,21.89c0.01-0.39-0.01-2.44-1.54-3.66c-1.2-0.95-2.92-1.1-5.11-0.44c-2.36,0.71-3.91,1.83-4.62,3.34
		c-0.79,1.67-0.2,3.13-0.14,3.29c0.49,1.16,1.41,2.09,2.45,2.73c1.04,0.64,2.22,0.99,3.25,0.99c0.14,0,0.26,0,0.39-0.01
		C46.25,27.72,47.26,23.89,47.18,21.89z M41.68,26.19c-1.36,0.14-3.44-0.95-4.12-2.52c-0.02-0.07-0.31-0.86,0.12-1.75
		c0.47-0.96,1.65-1.75,3.41-2.28c1.06-0.31,2.5-0.55,3.34,0.1c0.87,0.68,0.81,2.07,0.81,2.08v0.1
		C45.26,22.33,45.29,25.86,41.68,26.19z"></path><path fill="#9fd1f0" d="M41.68,26.19c-1.36,0.14-3.44-0.95-4.12-2.52c-0.02-0.07-0.31-0.86,0.12-1.75c0.47-0.96,1.65-1.75,3.41-2.28
		c1.06-0.31,2.5-0.55,3.34,0.1c0.87,0.68,0.81,2.07,0.81,2.08v0.1C45.26,22.33,45.29,25.86,41.68,26.19z"></path><path fill="#2a2f64" d="M28.1,21.13c-0.71-1.5-2.26-2.63-4.63-3.34c-2.19-0.66-3.91-0.51-5.1,0.44c-1.54,1.21-1.56,3.27-1.55,3.66
		c-0.07,2.01,0.94,5.84,5.32,6.25c0.13,0.01,0.25,0.01,0.38,0.01c2.06,0,4.72-1.41,5.7-3.72C28.29,24.26,28.87,22.8,28.1,21.13z
		 M26.44,23.67c-0.68,1.57-2.76,2.66-4.12,2.52c-3.6-0.33-3.57-3.86-3.56-4.35c0-0.02-0.05-1.42,0.81-2.09
		c0.39-0.3,0.91-0.42,1.45-0.42c0.64,0,1.32,0.16,1.89,0.32c1.76,0.53,2.94,1.32,3.4,2.28C26.75,22.81,26.47,23.6,26.44,23.67z"></path><path fill="#9fd1f0" d="M26.44,23.67c-0.68,1.57-2.76,2.66-4.12,2.52c-3.6-0.33-3.57-3.86-3.56-4.35c0-0.02-0.05-1.42,0.81-2.09
		c0.39-0.3,0.91-0.42,1.45-0.42c0.64,0,1.32,0.16,1.89,0.32c1.76,0.53,2.94,1.32,3.4,2.28C26.75,22.81,26.47,23.6,26.44,23.67z"></path><path fill="#2a2f64" d="M37.11,40.63l-2.67-5.12c-0.48-0.91-1.41-1.47-2.43-1.47c-1.03,0-1.97,0.56-2.44,1.47l-2.67,5.12
		c-0.45,0.86-0.41,1.87,0.09,2.7c0.5,0.83,1.39,1.32,2.36,1.32h5.33c0.97,0,1.84-0.48,2.35-1.32C37.52,42.5,37.55,41.49,37.11,40.63
		z M35.36,42.32c-0.07,0.12-0.28,0.39-0.69,0.39h-5.33c-0.42,0-0.62-0.27-0.7-0.39c-0.07-0.12-0.21-0.43-0.02-0.8l2.67-5.11
		c0.2-0.4,0.57-0.44,0.72-0.44c0.15,0,0.51,0.04,0.72,0.44l2.67,5.11C35.57,41.89,35.43,42.2,35.36,42.32z"></path><path fill="#9fd1f0" d="M35.36,42.32c-0.07,0.12-0.28,0.39-0.69,0.39h-5.33c-0.42,0-0.62-0.27-0.7-0.39
		c-0.07-0.12-0.21-0.43-0.02-0.8l2.67-5.11c0.2-0.4,0.57-0.44,0.72-0.44c0.15,0,0.51,0.04,0.72,0.44l2.67,5.11
		C35.57,41.89,35.43,42.2,35.36,42.32z"></path></svg>