<svg xmlns="http://www.w3.org/2000/svg" version="1.1" xmlns:xlink="http://www.w3.org/1999/xlink" xmlns:svgjs="http://svgjs.dev/svgjs" width="1000" height="1000" viewBox="0 0 1000 1000"><g transform="matrix(1,0,0,1,-0.14221556886212738,-0.14221556886229791)"><svg viewBox="0 0 334 334" data-background-color="#dcdcdc" preserveAspectRatio="xMidYMid meet" height="1000" width="1000" xmlns="http://www.w3.org/2000/svg" xmlns:xlink="http://www.w3.org/1999/xlink"><g id="tight-bounds" transform="matrix(1,0,0,1,0.04749999999998522,0.04750000000001364)"><svg viewBox="0 0 333.90454557049503 333.90454557049503" height="333.90454557049503" width="333.90454557049503"><g><svg></svg></g><g><svg viewBox="0 0 333.90454557049503 333.90454557049503" height="333.90454557049503" width="333.90454557049503"><g><path d="M0 166.952c0-92.205 74.747-166.952 166.952-166.952 92.205 0 166.952 74.747 166.953 166.952 0 92.205-74.747 166.952-166.953 166.953-92.205 0-166.952-74.747-166.952-166.953zM166.952 325.226c87.412 0 158.274-70.862 158.274-158.274 0-87.412-70.862-158.274-158.274-158.273-87.412 0-158.274 70.862-158.273 158.273 0 87.412 70.862 158.274 158.273 158.274z" data-fill-palette-color="tertiary" fill="#ff4057" stroke="transparent"></path><ellipse rx="160.27418187383762" ry="160.27418187383762" cx="166.95227278524752" cy="166.95227278524752" fill="#ff4057" stroke="transparent" stroke-width="0" fill-opacity="1" data-fill-palette-color="tertiary"></ellipse></g><g transform="matrix(1,0,0,1,100.15268729109073,71.17305217166896)"><svg viewBox="0 0 133.59917098831357 191.55844122715712" height="191.55844122715712" width="133.59917098831357"><g><svg viewBox="0 0 213.1584412271571 305.6328750681885" height="191.55844122715712" width="133.59917098831357"><g transform="matrix(1,0,0,1,0,152.0896782606706)"><svg viewBox="0 0 213.1584412271571 153.54319680751792" height="153.54319680751792" width="213.1584412271571"><g id="textblocktransform"><svg viewBox="0 0 213.1584412271571 153.54319680751792" height="153.54319680751792" width="213.1584412271571" id="textblock"><g><svg viewBox="0 0 213.1584412271571 153.54319680751792" height="153.54319680751792" width="213.1584412271571"><g transform="matrix(1,0,0,1,0,0)"><svg width="213.1584412271571" viewBox="1.0499999523162842 -30.3700008392334 42.15999984741211 30.3700008392334" height="153.54319680751792" data-palette-color="#282634"><path d="M1.05 0L13.7 0 14.14-2.93 10.33-4.2 11.5-21.41 18.63-0.29 23.63-0.98 31.03-21.73 32.35-4.32 28.98-2.78 28.54 0 42.92 0 43.21-2.93 38.84-4.2 37.35-26.42 41.38-27.54 41.72-30.37 29.57-30.37 27.91-25.93 22.19-10.4 17.11-25.49 15.28-30.37 2.95-30.37 2.66-27.54 7.13-26.32 5.54-4.32 1.44-2.78 1.05 0Z" opacity="1" transform="matrix(1,0,0,1,0,0)" fill="#282634" class="undefined-text-0" data-fill-palette-color="quaternary" id="text-0"></path></svg></g></svg></g></svg></g></svg></g><g transform="matrix(1,0,0,1,40.713262274387006,0)"><svg viewBox="0 0 131.7319166783831 115.84181453113902" height="115.84181453113902" width="131.7319166783831"><g><svg xmlns="http://www.w3.org/2000/svg" xmlns:xlink="http://www.w3.org/1999/xlink" version="1.1" x="0" y="0" viewBox="18 21.8599853515625 64 56.280029296875" style="enable-background:new 0 0 100 100;" xml:space="preserve" height="115.84181453113902" width="131.7319166783831" class="icon-icon-0" data-fill-palette-color="quaternary" id="icon-0"><path d="M69.01 43.1v-2.22c0-5.09-1.98-9.87-5.57-13.45C59.86 23.84 55.08 21.86 50 21.86c-10.49 0-19.02 8.53-19.02 19.02v2.22C23.74 43.62 18 49.68 18 57.14c0 0.51 0.38 0.94 0.89 0.99C24.93 58.79 29.5 63.87 29.54 69.96l1-0.01-1 0.11c0 0.53 0.41 0.97 0.94 1 4.05 0.25 7.66 2.5 9.66 6.02 0.15 0.25 0.4 0.43 0.69 0.49 0.29 0.05 0.59-0.03 0.82-0.22C43.79 75.58 46.5 74.61 49.28 74.61c3.07 0 5.98 1.15 8.2 3.25 0.18 0.18 0.43 0.28 0.68 0.28 0.06 0 0.12-0.01 0.17-0.02 0.32-0.05 0.58-0.25 0.73-0.53 1.78-3.52 5.18-5.93 9.08-6.44 0.5-0.07 0.87-0.49 0.87-0.99v-0.13c0-6.6 5.38-11.97 11.99-11.97 0.55 0 1-0.45 1-1C82 49.68 76.26 43.62 69.01 43.1zM40 36c0-1.66 1.35-3 3-3 1.65 0 3 1.34 3 3 0 1.65-1.35 3-3 3C41.35 39 40 37.65 40 36zM57 45c0 3.86-3.14 7-7 7s-7-3.14-7-7v-2c0-0.56 0.45-1 1-1h12c0.55 0 1 0.44 1 1V45zM56 39c-1.65 0-3-1.35-3-3 0-1.66 1.35-3 3-3 1.65 0 3 1.34 3 3C59 37.65 57.65 39 56 39z" fill="#282634" data-fill-palette-color="quaternary"></path></svg></g></svg></g><g></g></svg></g></svg></g></svg></g><defs></defs></svg><rect width="333.90454557049503" height="333.90454557049503" fill="none" stroke="none" visibility="hidden"></rect></g></svg></g></svg>