<svg xmlns="http://www.w3.org/2000/svg" viewBox="0 0 24 24" id="pumpkin"><path fill="#f99f38" d="M15 5.5a6.72 6.72 0 0 0-3 .712A6.72 6.72 0 0 0 9 5.5c-4.142 0-7.5 3.806-7.5 8.5s3.358 8.5 7.5 8.5h6c4.142 0 7.5-3.806 7.5-8.5S19.142 5.5 15 5.5z"></path><path d="M15.722 5.541C17.689 7.311 19 10.433 19 14s-1.311 6.688-3.278 8.459c3.803-.412 6.778-4.04 6.778-8.459 0-4.418-2.975-8.047-6.778-8.459z" opacity=".1"></path><path fill="#fff" d="M5 14c0-3.567 1.311-6.688 3.278-8.459C4.475 5.953 1.5 9.581 1.5 14c0 4.418 2.975 8.047 6.778 8.459C6.311 20.688 5 17.567 5 14z" opacity=".2"></path><path fill="#5c6671" d="M6.5 9.5v2a1 1 0 0 0 1 1h3l-4-3zm11 0v2a1 1 0 0 1-1 1h-3l4-3z"></path><path fill="#0db14b" d="M11.5 5.5v.497c.168.068.337.134.5.215a6.878 6.878 0 0 1 1.5-.537V5.5a4 4 0 0 0-4-4v2a2 2 0 0 1 2 2z"></path><path fill="#303c42" d="M7.5 13h3a.5.5 0 0 0 .3-.9l-4-3a.5.5 0 0 0-.799.4v2A1.5 1.5 0 0 0 7.5 13zM7 10.5 9 12H7.5a.5.5 0 0 1-.5-.5v-1zm6.5 2.5h3c.827 0 1.5-.673 1.5-1.5v-2a.5.5 0 0 0-.799-.4l-4 3a.499.499 0 0 0 .299.9zm3.5-2.5v1a.5.5 0 0 1-.5.5H15l2-1.5zm.684 4.728a.5.5 0 0 0-.587.394l-.207 1.049-1.114-.229a.504.504 0 0 0-.502.191l-.716.962-1.056-.586a.494.494 0 0 0-.563.054l-.938.786-.94-.787a.5.5 0 0 0-.564-.053l-1.051.586-.715-.961a.498.498 0 0 0-.502-.191l-1.114.23-.209-1.052a.494.494 0 0 0-.588-.393.5.5 0 0 0-.393.588l.308 1.546c.026.13.103.246.214.319s.247.098.377.073l1.295-.268.787 1.057a.5.5 0 0 0 .645.138l1.133-.632.998.834a.498.498 0 0 0 .642 0l.996-.834 1.138.631a.5.5 0 0 0 .644-.138l.788-1.058 1.296.267a.502.502 0 0 0 .592-.393l.304-1.544a.505.505 0 0 0-.398-.586z"></path><path fill="#303c42" d="M15 5c-.351 0-.698.035-1.042.086C13.745 2.801 11.839 1 9.5 1a.5.5 0 0 0-.5.5v2a.5.5 0 0 0 .5.5c.755 0 1.375.563 1.479 1.29A7.114 7.114 0 0 0 9 5c-4.411 0-8 4.038-8 9s3.589 9 8 9h6c4.411 0 8-4.038 8-9s-3.589-9-8-9zm-5-1.95V2.035A3.499 3.499 0 0 1 12.982 5.3c-.332.098-.66.211-.982.358V5.5c0-1.208-.86-2.217-2-2.45zM15 22H9c-3.86 0-7-3.589-7-8s3.14-8 7-8c.79 0 1.562.159 2.303.456l.004.002c.158.063.316.125.47.201.14.069.305.069.444 0a6.205 6.205 0 0 1 2.778-.66c3.86 0 7 3.589 7 8S18.86 22 15 22z"></path><linearGradient id="a" x1="2.337" x2="22.105" y1="8.917" y2="18.135" gradientUnits="userSpaceOnUse"><stop offset="0" stop-color="#fff" stop-opacity=".2"></stop><stop offset="1" stop-color="#fff" stop-opacity="0"></stop></linearGradient><path fill="url(#a)" d="M15 5c-.351 0-.698.035-1.042.086C13.745 2.801 11.839 1 9.5 1a.5.5 0 0 0-.5.5v2a.5.5 0 0 0 .5.5c.755 0 1.375.563 1.479 1.29A7.114 7.114 0 0 0 9 5c-4.411 0-8 4.038-8 9s3.589 9 8 9h6c4.411 0 8-4.038 8-9s-3.589-9-8-9z"></path></svg>